<mxfile host="app.diagrams.net" modified="2024-02-21T05:25:00.769Z" agent="Mozilla/5.0 (Windows NT 10.0; Win64; x64) AppleWebKit/537.36 (KHTML, like Gecko) Chrome/121.0.0.0 Safari/537.36 Edg/121.0.0.0" version="23.1.5" etag="qfktGVe90BR4jmkWcQvm" type="github">
  <diagram name="第 1 页" id="d1jForhdlh5fwZ9U8CAC">
    <mxGraphModel>
      <root>
        <mxCell id="0" />
        <mxCell id="1" parent="0" />
      </root>
    </mxGraphModel>
  </diagram>
</mxfile>
